<svg xmlns="http://www.w3.org/2000/svg" width="482" height="482" viewBox="0 0 482 482">
  <g id="dish" transform="translate(2 2)">
    <g id="Gruppe_37" data-name="Gruppe 37" transform="translate(254.945 119.455)">
      <g id="Gruppe_36" data-name="Gruppe 36">
        <path id="Pfad_22" data-name="Pfad 22" d="M339.554,161.6l-5.115-16.834a36.567,36.567,0,0,0-69.246,0L260.079,161.6a94.556,94.556,0,0,0-2.637,43.817,41.212,41.212,0,0,0,21.223,28.72l-5.728,128.048a25.229,25.229,0,0,0,6.373,19.614,27.828,27.828,0,0,0,39.314,1.762q.92-.841,1.762-1.762a24.889,24.889,0,0,0,6.373-19.08L321,234.122a41.2,41.2,0,0,0,21.191-28.7A94.556,94.556,0,0,0,339.554,161.6ZM326.5,202.646a25.26,25.26,0,0,1-16.531,19.032,7.965,7.965,0,0,0-5.154,7.815l6.055,134.485a9.216,9.216,0,0,1-2.39,7.218,12.308,12.308,0,0,1-17.32,0,9.562,9.562,0,0,1-2.342-7.744l6.007-133.959a7.965,7.965,0,0,0-5.154-7.815,25.26,25.26,0,0,1-16.531-19.032,78.562,78.562,0,0,1,2.191-36.376l5.115-16.842a20.658,20.658,0,0,1,38.75,0l5.115,16.842A78.67,78.67,0,0,1,326.5,202.646Z" transform="translate(-256.012 -119.955)" stroke="#000" stroke-width="4"/>
      </g>
    </g>
    <g id="Gruppe_39" data-name="Gruppe 39" transform="translate(135.433 119.5)">
      <g id="Gruppe_38" data-name="Gruppe 38">
        <path id="Pfad_23" data-name="Pfad 23" d="M215.667,120a7.967,7.967,0,0,0-7.967,7.967v68.4l-21.566,21.566a7.967,7.967,0,0,0-2.334,6.031l6.971,139.417a10.852,10.852,0,0,1-3.011,8.118,11.217,11.217,0,0,1-15.864.07l-.07-.07a10.848,10.848,0,0,1-3.011-8.118l7.019-139.417a7.968,7.968,0,0,0-2.326-6.031l-21.574-21.566v-68.4a7.967,7.967,0,1,0-15.933,0v71.7a7.966,7.966,0,0,0,2.334,5.632l21.4,21.406-6.8,135.9a26.911,26.911,0,0,0,53.759,2.619q.064-1.309,0-2.618l-6.8-135.9L221.3,205.3a7.966,7.966,0,0,0,2.334-5.632v-71.7A7.967,7.967,0,0,0,215.667,120Z" transform="translate(-136 -120)" stroke="#000" stroke-width="4"/>
      </g>
    </g>
    <g id="Gruppe_41" data-name="Gruppe 41" transform="translate(159.333 119.5)">
      <g id="Gruppe_40" data-name="Gruppe 40">
        <path id="Pfad_24" data-name="Pfad 24" d="M167.967,120A7.967,7.967,0,0,0,160,127.967V191.7a7.967,7.967,0,1,0,15.933,0V127.967A7.967,7.967,0,0,0,167.967,120Z" transform="translate(-160 -120)" stroke="#000" stroke-width="4"/>
      </g>
    </g>
    <g id="Gruppe_43" data-name="Gruppe 43" transform="translate(183.233 119.5)">
      <g id="Gruppe_42" data-name="Gruppe 42">
        <path id="Pfad_25" data-name="Pfad 25" d="M191.967,120A7.967,7.967,0,0,0,184,127.967V191.7a7.967,7.967,0,1,0,15.933,0V127.967A7.967,7.967,0,0,0,191.967,120Z" transform="translate(-184 -120)" stroke="#000" stroke-width="4"/>
      </g>
    </g>
    <g id="Gruppe_45" data-name="Gruppe 45">
      <g id="Gruppe_44" data-name="Gruppe 44">
        <path id="Pfad_26" data-name="Pfad 26" d="M239,0C107,0,0,107,0,239S107,478,239,478,478,371,478,239C477.851,107.066,370.934.149,239,0Zm0,462.067C115.8,462.067,15.933,362.2,15.933,239S115.8,15.933,239,15.933,462.067,115.8,462.067,239C461.926,362.138,362.138,461.926,239,462.067Z" stroke="#000" stroke-width="4"/>
      </g>
    </g>
    <g id="Gruppe_47" data-name="Gruppe 47" transform="translate(213.221 381.353)">
      <g id="Gruppe_46" data-name="Gruppe 46">
        <path id="Pfad_27" data-name="Pfad 27" d="M265.753,390.142a7.967,7.967,0,0,0-8.7-7.155q-.154.015-.308.036l.032-.008a146.346,146.346,0,0,1-33.763,0,7.969,7.969,0,1,0-1.856,15.83,161.368,161.368,0,0,0,37.443,0A7.966,7.966,0,0,0,265.753,390.142Z" transform="translate(-214.113 -382.949)" stroke="#000" stroke-width="4"/>
      </g>
    </g>
    <g id="Gruppe_49" data-name="Gruppe 49" transform="translate(337.881 133.494)">
      <g id="Gruppe_48" data-name="Gruppe 48">
        <path id="Pfad_28" data-name="Pfad 28" d="M362.3,136.9a7.966,7.966,0,0,0-11.223-.984l-.034.028a7.967,7.967,0,0,0-.956,11.225,143.4,143.4,0,0,1-8.453,193.964,7.968,7.968,0,1,0,11.249,11.289A159.334,159.334,0,0,0,362.3,136.9Z" transform="translate(-339.295 -134.053)" stroke="#000" stroke-width="4"/>
      </g>
    </g>
    <g id="Gruppe_52" data-name="Gruppe 52" transform="translate(177.639 79.693)">
      <g id="Gruppe_51" data-name="Gruppe 51">
        <g id="Gruppe_50" data-name="Gruppe 50">
          <path id="Pfad_29" data-name="Pfad 29" d="M186.392,105.744h0Z" transform="translate(-178.415 -80.134)" stroke="#000" stroke-width="4"/>
          <path id="Pfad_30" data-name="Pfad 30" d="M277.322,84.453a160.744,160.744,0,0,0-93.776,5.76,7.959,7.959,0,1,0,5.585,14.906,144.728,144.728,0,0,1,84.447-5.178,7.967,7.967,0,1,0,3.744-15.487Z" transform="translate(-178.382 -80.027)" stroke="#000" stroke-width="4"/>
        </g>
      </g>
    </g>
    <g id="Gruppe_54" data-name="Gruppe 54" transform="translate(79.655 141.895)">
      <g id="Gruppe_53" data-name="Gruppe 53">
        <path id="Pfad_31" data-name="Pfad 31" d="M137.75,340.77a143.384,143.384,0,0,1-14.4-185.528,7.967,7.967,0,0,0-12.737-9.574c-.047.063-.093.125-.137.189a159.333,159.333,0,0,0,15.989,206.193A7.98,7.98,0,0,0,137.75,340.77Z" transform="translate(-79.989 -142.488)" stroke="#000" stroke-width="4"/>
      </g>
    </g>
  </g>
</svg>
