<svg xmlns="http://www.w3.org/2000/svg" width="490.418" height="482.167" viewBox="0 0 490.418 482.167">
  <g id="_020---Hot-Match" data-name="020---Hot-Match" transform="translate(2 2)">
    <path id="Shape" d="M272.085,247.908A125.052,125.052,0,0,1,201.816,366.72c-56.732,26.906-128.781,2.27-159.741-54.057a115.976,115.976,0,0,1,0-106.98,303.091,303.091,0,0,1,15.4-26.178A499.883,499.883,0,0,0,88.761,127.88,144.586,144.586,0,0,0,104.97,66.124,150.589,150.589,0,0,0,101.484,32c-.486-2.188-1.216-6.078-2.107-10.373a7.213,7.213,0,0,1,11.346-7.216A522.034,522.034,0,0,1,154.57,52.1l5.024,4.781c6.16,7.132,25.854,33.391,13.211,62.485-9.32,21.314-20.5,69.131,15.642,71.644,14.345,1.054,25.043-10.941,30.716-22.773a56.73,56.73,0,0,0,5.754-17.587,29.664,29.664,0,0,0-.486-10.7c0-1.134-2.35-8.753,1.216-7.456s5.592,6.974,7.132,9.48c19.694,32.175,37.686,67.754,39.307,105.926Z" transform="translate(206.081 92.481)" fill="none" fill-rule="evenodd"/>
    <path id="Shape-2" data-name="Shape" d="M38.6,25.591c10.293,8.1,20.423,17.264,30.067,26.5l5.024,4.781c6.16,7.132,25.854,33.391,13.211,62.485-9.32,21.314-20.5,69.131,15.642,71.644a23.427,23.427,0,0,0,12.967-2.918c-22.045-11.022-12.481-50.086-4.3-68.727,12.64-29.093-7.051-55.354-13.211-62.485l-5.024-4.781A522.013,522.013,0,0,0,49.137,14.407,7.213,7.213,0,0,0,37.79,21.621c.327,1.377.568,2.674.811,3.972Z" transform="translate(267.507 92.41)" fill="none" fill-rule="evenodd"/>
    <path id="Shape-3" data-name="Shape" d="M135.212,37.456c-1.54-2.513-4.133-8.1-7.132-9.48s-1.459,6.32-1.216,7.456a29.663,29.663,0,0,1,.486,10.134A54.461,54.461,0,0,1,123.7,58.939a192.562,192.562,0,0,1,26.5,83.882A125.052,125.052,0,0,1,79.939,261.627a114.679,114.679,0,0,1-37.2,10.212,116.7,116.7,0,0,0,61.513-10.212A125.052,125.052,0,0,0,174.52,142.815C172.9,104.642,154.906,69.064,135.212,37.456Z" transform="translate(303.646 197.574)" fill="none" fill-rule="evenodd"/>
    <g id="Gruppe_38" data-name="Gruppe 38">
      <path id="Shape-4" data-name="Shape" d="M357.6,105.061a126.108,126.108,0,0,1-4.215,32.418,522.028,522.028,0,0,0-43.845-37.686,7.213,7.213,0,0,0-11.346,7.213c.891,4.3,1.621,8.1,2.107,10.373a150.586,150.586,0,0,1,3.487,34.12,144.584,144.584,0,0,1-16.212,61.763,499.893,499.893,0,0,1-31.283,51.626,755.158,755.158,0,0,1-67.511,49.361,17.667,17.667,0,0,1-19.451,0C55.219,238.058,1,172.735,1,105.061,1,48.9,37.394,1,90.15,1A110.707,110.707,0,0,1,179.3,48.9,110.707,110.707,0,0,1,268.449,1C321.209,1,357.6,48.9,357.6,105.061Z" transform="translate(7.105 7.105)" fill="none"/>
      <path id="Shape-5" data-name="Shape" d="M45.3,1a94.581,94.581,0,0,0-12.886.891c46.517,6.322,77.722,51.14,77.722,103.169a82.221,82.221,0,0,1-.729,13.372c7.051,6.16,14.02,12.481,20.828,18.96a126.107,126.107,0,0,0,4.215-32.418C134.446,48.9,98.056,1,45.3,1Z" transform="translate(230.257 7.105)" fill="none"/>
      <path id="Shape-6" data-name="Shape" d="M12.1,78.177a8.1,8.1,0,0,1-8.1-8.1A73.67,73.67,0,0,1,40.876,6.128,8.1,8.1,0,1,1,48.17,20.553a57.7,57.7,0,0,0-27.96,49.519,8.1,8.1,0,0,1-8.1,8.1Z" transform="translate(28.418 35.286)" fill="none"/>
      <circle id="Oval" cx="8.172" cy="8.172" r="8.172" transform="translate(88.674 32.505)" fill="none"/>
      <path id="Shape-7" data-name="Shape" d="M172.221,327.99a25.529,25.529,0,0,0,28.365,0c13.048-8.672,25.449-17.263,36.955-25.691a122.3,122.3,0,0,0,3.4,106.655A134.859,134.859,0,0,0,358.3,478.166,123.271,123.271,0,0,0,411.14,466.5,133.32,133.32,0,0,0,486.269,340.39c-1.621-41.819-22.447-80.477-40.523-109.492l-.891-1.621A22.045,22.045,0,0,0,434.4,218.011a9.48,9.48,0,0,0-9.644,1.864c-4.863,4.538-2.918,11.995-2.107,15.317a21.316,21.316,0,0,1,0,8.1,50.735,50.735,0,0,1-4.781,15.074c-2.188,4.538-10.212,19.126-22.855,18.235a15.722,15.722,0,0,1-13.94-7.375c-8.1-12.724-1.134-38.658,5.187-53,14.426-33.309-7.456-62.81-14.507-71l-.891-.891-1.783-1.7a130.646,130.646,0,0,0,3.728-30.473C372.808,49.276,330.1,0,275.553,0A116.624,116.624,0,0,0,186.4,42.548,116.624,116.624,0,0,0,97.255,0C42.714,0,0,49.276,0,112.166,0,182.188,53.085,248.728,172.221,327.99Zm173.355,39.145a52.521,52.521,0,0,0-8.1-11.509,44.013,44.013,0,0,1-5.187-7.132c-1.54-3.079-2.833-8.51,3.322-19.369,2.833-4.944,6.16-10.05,9.887-15.479a61.432,61.432,0,0,0,5.592,16.7,111.436,111.436,0,0,0,35.9,35.822,207.893,207.893,0,0,1,17.181,13.454,48.628,48.628,0,0,1,14.993,20.261,34.768,34.768,0,0,1-3.322,25.691,64.833,64.833,0,0,1-29.662,28.285c-20.584,10.049-51.224,11.422-69.941-5.269a36.634,36.634,0,0,1-7.456-9.153,54.463,54.463,0,0,1-5.268-30.392,143.279,143.279,0,0,1,2.188-15.561c.811.729,1.621,1.3,2.35,1.864a25.286,25.286,0,0,0,26.421,3.814,22.447,22.447,0,0,0,12.481-12.806,24.313,24.313,0,0,0-1.377-19.208Zm26.1-158.2c-1.945,4.458-18.56,44.089-4.133,67.834a31.85,31.85,0,0,0,26.663,14.993c15.317,1.134,29.905-9.077,38.573-27.393a68.723,68.723,0,0,0,5.43-15.156c15.156,26.34,30.392,58.029,31.851,91.176a117.191,117.191,0,0,1-9.807,53.085,118.894,118.894,0,0,1-32.418,42.792c.811-1.377,1.621-2.833,2.35-4.3a50.167,50.167,0,0,0,4.133-37.849,65.814,65.814,0,0,0-19.532-27.312,201.479,201.479,0,0,0-18.477-14.42,97.254,97.254,0,0,1-31.041-30.23,58.187,58.187,0,0,1-5.349-21.963,11.491,11.491,0,0,0-20.748-5.993,231.373,231.373,0,0,0-17.587,26.178,35.336,35.336,0,0,0-3.814,34.525,49.678,49.678,0,0,0,8.1,10.941,39.788,39.788,0,0,1,5.673,8.1,8.753,8.753,0,0,1,.811,6.483,7.213,7.213,0,0,1-3.972,3.728,10.46,10.46,0,0,1-9.887-1.945,11.832,11.832,0,0,1-5.024-6.647c-.891-8.1-6.078-9.644-8.1-9.887s-8.1,0-11.1,9a83.309,83.309,0,0,0-3.079,12.562A197.6,197.6,0,0,0,288.11,407.5a72.939,72.939,0,0,0,4.944,34.039,115.813,115.813,0,0,1-37.119-40.523,107.06,107.06,0,0,1,0-99.443,395.824,395.824,0,0,1,21.8-35.9,384.65,384.65,0,0,0,24.965-41.99,150.823,150.823,0,0,0,16.781-64.834,156.493,156.493,0,0,0-3.728-35.984,25.385,25.385,0,0,0-.891-4.3c-.405-1.783,0-2.27-.654-3.487a507.582,507.582,0,0,1,46.034,40.523c5.024,5.754,22.125,28.69,11.427,53.328ZM97.255,16.209A101.631,101.631,0,0,1,179.516,60.3a8.134,8.134,0,0,0,13.777,0,101.631,101.631,0,0,1,82.261-44.089c46.2,0,81.045,41.252,81.045,95.958a111.844,111.844,0,0,1-1.216,16.209c-11.184-10.134-22.53-19.694-33.877-28.285a15.236,15.236,0,0,0-24.313,15.317l1.134,5.754.973,4.7a140.941,140.941,0,0,1,3.322,32.418,135.345,135.345,0,0,1-15.156,58.434,363.647,363.647,0,0,1-24.313,40.523c-2.107,3.16-4.133,6.32-6.16,9.48-18.96,15.4-41.09,31.607-65.889,48.14a9.887,9.887,0,0,1-10.536,0C67.105,238.6,16.209,176.195,16.209,112.166c0-54.705,34.85-95.958,81.045-95.958Z" stroke="#000" stroke-width="4"/>
    </g>
  </g>
</svg>
