<svg xmlns="http://www.w3.org/2000/svg" width="511.998" height="478.167" viewBox="0 0 511.998 478.167">
  <g id="settings" transform="translate(0 -16.917)">
    <g id="Gruppe_58" data-name="Gruppe 58">
      <g id="Gruppe_57" data-name="Gruppe 57">
        <path id="Pfad_40" data-name="Pfad 40" d="M509.952,223.9a41.94,41.94,0,0,0-19.989-30.677,41.191,41.191,0,0,0-36.011-3.2c-9.813,3.712-21.077-1.387-25.6-11.5a189.583,189.583,0,0,0-19.008-33.045c-6.613-9.173-5.376-21.205,2.859-27.989A41.01,41.01,0,0,0,427.243,84.8a41.863,41.863,0,0,0-16.683-32.64A255.564,255.564,0,0,0,355.371,20.29a41.932,41.932,0,0,0-36.736,1.856,41.02,41.02,0,0,0-20.757,29.333c-1.771,10.56-11.541,17.621-22.933,16.448a181.135,181.135,0,0,0-37.867,0c-11.285,1.195-21.163-5.888-22.933-16.448a40.982,40.982,0,0,0-20.757-29.333,41.869,41.869,0,0,0-36.736-1.856,255.192,255.192,0,0,0-55.211,31.872A41.832,41.832,0,0,0,84.779,84.78,41.151,41.151,0,0,0,99.84,117.527c8.213,6.763,9.451,18.8,2.859,27.968A188.356,188.356,0,0,0,83.67,178.54c-4.5,10.133-15.787,15.211-25.835,11.413a41.216,41.216,0,0,0-35.776,3.285A41.781,41.781,0,0,0,2.07,223.915,251.791,251.791,0,0,0,0,256a256.45,256.45,0,0,0,2.048,32.107,41.94,41.94,0,0,0,19.989,30.677,41.254,41.254,0,0,0,36.011,3.2c9.792-3.733,21.056,1.365,25.6,11.5a189.581,189.581,0,0,0,19.008,33.045c6.613,9.173,5.376,21.2-2.859,27.989A41.01,41.01,0,0,0,84.757,427.2a41.863,41.863,0,0,0,16.683,32.64,255.564,255.564,0,0,0,55.189,31.872,41.935,41.935,0,0,0,36.736-1.856,41.02,41.02,0,0,0,20.757-29.333c1.771-10.56,11.627-17.621,22.933-16.448a181.135,181.135,0,0,0,37.867,0c11.413-1.131,21.163,5.888,22.933,16.448a40.982,40.982,0,0,0,20.757,29.333,41.781,41.781,0,0,0,20.224,5.227,42.391,42.391,0,0,0,16.491-3.371,256.475,256.475,0,0,0,55.189-31.872A41.759,41.759,0,0,0,427.2,427.222a41.092,41.092,0,0,0-15.04-32.725c-8.213-6.763-9.451-18.8-2.859-27.968a188.354,188.354,0,0,0,19.029-33.045c4.523-10.133,15.829-15.189,25.6-11.5l.235.085a41.052,41.052,0,0,0,35.776-3.285,41.819,41.819,0,0,0,19.989-30.7A253.981,253.981,0,0,0,512,256,258.113,258.113,0,0,0,509.952,223.9Zm-21.184,61.482a20.608,20.608,0,0,1-9.813,15.125A19.877,19.877,0,0,1,461.44,302l-.128-.043c-20.352-7.531-43.328,2.475-52.437,22.827A167.4,167.4,0,0,1,392,354.091c-13.248,18.432-10.389,42.9,6.635,56.9a19.834,19.834,0,0,1,7.253,15.808,20.574,20.574,0,0,1-8.235,16.064,232.945,232.945,0,0,1-50.581,29.2,20.778,20.778,0,0,1-18.155-.875,19.778,19.778,0,0,1-10.005-14.144c-3.392-20.288-20.757-34.411-41.387-34.411-1.579,0-3.2.064-4.821.192a161.9,161.9,0,0,1-33.408,0c-22.7-2.581-42.56,12.309-46.208,34.155a19.743,19.743,0,0,1-10.005,14.144,20.753,20.753,0,0,1-18.176.875,233.848,233.848,0,0,1-50.581-29.2,20.532,20.532,0,0,1-8.235-16.043,19.787,19.787,0,0,1,7.275-15.808c17.024-13.995,19.861-38.464,6.613-56.9a168.059,168.059,0,0,1-16.853-29.312C94,304.341,70.934,294.379,50.305,302.059a19.775,19.775,0,0,1-17.259-1.579,20.526,20.526,0,0,1-9.813-15.125A228.808,228.808,0,0,1,21.334,256a225.671,225.671,0,0,1,1.92-29.376A20.608,20.608,0,0,1,33.067,211.5a19.9,19.9,0,0,1,17.493-1.493c20.373,7.6,43.435-2.368,52.565-22.784A167.223,167.223,0,0,1,120,157.931c13.248-18.432,10.389-42.9-6.635-56.9a19.834,19.834,0,0,1-7.253-15.808,20.574,20.574,0,0,1,8.235-16.064,233.806,233.806,0,0,1,50.581-29.205,20.711,20.711,0,0,1,18.155.875A19.734,19.734,0,0,1,193.088,55C196.736,76.843,216.6,91.585,239.3,89.153a161.9,161.9,0,0,1,33.408,0c22.571,2.411,42.56-12.309,46.208-34.155a19.743,19.743,0,0,1,10.005-14.144,20.611,20.611,0,0,1,18.176-.875,233.847,233.847,0,0,1,50.581,29.2,20.532,20.532,0,0,1,8.235,16.043,19.787,19.787,0,0,1-7.275,15.808c-17.024,14-19.861,38.464-6.613,56.9a168.059,168.059,0,0,1,16.853,29.312c9.131,20.4,32.213,30.379,52.821,22.677a19.772,19.772,0,0,1,17.259,1.579,20.6,20.6,0,0,1,9.813,15.125,228.231,228.231,0,0,1,0,58.753Z"/>
      </g>
    </g>
    <g id="Gruppe_60" data-name="Gruppe 60">
      <g id="Gruppe_59" data-name="Gruppe 59">
        <path id="Pfad_41" data-name="Pfad 41" d="M256,149.335A106.666,106.666,0,1,0,362.667,256,106.788,106.788,0,0,0,256,149.335Zm0,192A85.333,85.333,0,1,1,341.333,256,85.419,85.419,0,0,1,256,341.335Z"/>
      </g>
    </g>
  </g>
</svg>
