<svg xmlns="http://www.w3.org/2000/svg" width="331.838" height="330.401" viewBox="0 0 331.838 330.401">
  <g id="play" transform="translate(0 -0.719)">
    <path id="Pfad_55" data-name="Pfad 55" d="M61.44,128.7V310.677a13.581,13.581,0,0,0,19.828,12.059l236.407-115.4a13.582,13.582,0,0,0,0-24.119L81.268,67.822A13.581,13.581,0,0,0,61.44,79.881" fill="none"/>
    <path id="Pfad_56" data-name="Pfad 56" d="M75.047,331.12a20.488,20.488,0,0,1-20.434-20.444V128.7a6.827,6.827,0,1,1,13.654,0v181.98a6.753,6.753,0,0,0,9.86,6l236.556-115.47a6.765,6.765,0,0,0-.147-11.928L78.275,73.956a6.8,6.8,0,0,0-6.764.154,6.661,6.661,0,0,0-3.243,5.774,6.827,6.827,0,1,1-13.654,0,20.405,20.405,0,0,1,29.793-18.12L320.671,177.087a20.405,20.405,0,0,1,.147,36.313L84.263,328.869A20,20,0,0,1,75.047,331.12Z"/>
    <g id="Gruppe_84" data-name="Gruppe 84">
      <path id="Pfad_57" data-name="Pfad 57" d="M217.755,190.494l-93.833-45.8a5.39,5.39,0,0,0-7.869,4.785v91.6a5.389,5.389,0,0,0,7.869,4.785l93.833-45.8A5.389,5.389,0,0,0,217.755,190.494Z"/>
      <path id="Pfad_58" data-name="Pfad 58" d="M121.477,253.323a12.29,12.29,0,0,1-6.383-1.8,12.133,12.133,0,0,1-5.868-10.436V149.476a12.219,12.219,0,0,1,17.835-10.849l93.689,45.734c.05.024.1.046.147.073a12.215,12.215,0,0,1,0,21.692L126.918,252A11.791,11.791,0,0,1,121.477,253.323Zm-.643-13.541a.387.387,0,0,0-.046.024Zm2.046-88.006v87.006l89.12-43.5Zm-1.949-.954a.064.064,0,0,0,.024.014Z"/>
    </g>
    <g id="Gruppe_85" data-name="Gruppe 85">
      <path id="Pfad_59" data-name="Pfad 59" d="M47.787,48.506a6.8,6.8,0,0,1-4.826-2L25.894,29.439a6.826,6.826,0,0,1,9.653-9.653L52.614,36.853a6.827,6.827,0,0,1-4.827,11.653Z"/>
      <path id="Pfad_60" data-name="Pfad 60" d="M81.92,41.679a6.828,6.828,0,0,1-6.827-6.827V7.546a6.827,6.827,0,0,1,13.654,0V34.853A6.827,6.827,0,0,1,81.92,41.679Z"/>
      <path id="Pfad_61" data-name="Pfad 61" d="M34.133,75.813H6.827a6.827,6.827,0,0,1,0-13.654H34.134a6.827,6.827,0,1,1,0,13.654Z"/>
    </g>
  </g>
</svg>
